<svg width="13" height="14" viewBox="0 0 13 14" fill="none" xmlns="http://www.w3.org/2000/svg">
<path d="M2.03109 4.19931C1.9246 4.19931 1.81916 4.22029 1.72078 4.26104C1.6224 4.30179 1.53301 4.36152 1.45771 4.43681C1.38242 4.51211 1.32269 4.6015 1.28194 4.69988C1.24119 4.79826 1.22021 4.9037 1.22021 5.01019C1.22021 5.11667 1.24119 5.22212 1.28194 5.3205C1.32269 5.41888 1.38242 5.50827 1.45771 5.58356C1.53301 5.65886 1.6224 5.71859 1.72078 5.75934C1.81916 5.80009 1.9246 5.82106 2.03109 5.82106C2.24615 5.82106 2.4524 5.73563 2.60447 5.58356C2.75653 5.43149 2.84196 5.22525 2.84196 5.01019C2.84196 4.79513 2.75653 4.58888 2.60447 4.43681C2.4524 4.28474 2.24615 4.19931 2.03109 4.19931ZM2.03109 3.38681C1.94171 3.38735 1.85369 3.3944 1.76703 3.40794C1.91704 3.02938 2.17736 2.70465 2.51421 2.47588C2.85106 2.24711 3.2489 2.12486 3.65609 2.125H9.34359C9.88231 2.125 10.399 2.33901 10.7799 2.71994C11.1608 3.10087 11.3748 3.61753 11.3748 4.15625V9.84375C11.3748 10.3825 11.1608 10.8991 10.7799 11.2801C10.399 11.661 9.88231 11.875 9.34359 11.875H3.65609C3.11737 11.875 2.60071 11.661 2.21978 11.2801C1.83885 10.8991 1.62484 10.3825 1.62484 9.84375V6.58319C1.86487 6.64457 2.11575 6.65031 2.35834 6.59997C2.60093 6.54963 2.82881 6.44454 3.0246 6.29272C3.22039 6.1409 3.37892 5.94636 3.48808 5.72395C3.59723 5.50154 3.65415 5.25713 3.65447 5.00938C3.65382 4.5791 3.48255 4.16665 3.17823 3.86248C2.8739 3.5583 2.46136 3.38724 2.03109 3.38681ZM4.46859 5.78125C4.46859 5.88899 4.51139 5.99233 4.58758 6.06851C4.66376 6.1447 4.7671 6.1875 4.87484 6.1875H8.12484C8.23258 6.1875 8.33592 6.1447 8.4121 6.06851C8.48829 5.99233 8.53109 5.88899 8.53109 5.78125C8.53109 5.67351 8.48829 5.57017 8.4121 5.49399C8.33592 5.4178 8.23258 5.375 8.12484 5.375H4.87484C4.7671 5.375 4.66376 5.4178 4.58758 5.49399C4.51139 5.57017 4.46859 5.67351 4.46859 5.78125ZM4.46859 8.21875C4.46859 8.32649 4.51139 8.42983 4.58758 8.50601C4.66376 8.5822 4.7671 8.625 4.87484 8.625H6.99872C7.10646 8.625 7.20979 8.5822 7.28598 8.50601C7.36216 8.42983 7.40497 8.32649 7.40497 8.21875C7.40497 8.11101 7.36216 8.00767 7.28598 7.93149C7.20979 7.8553 7.10646 7.8125 6.99872 7.8125H4.87484C4.7671 7.8125 4.66376 7.8553 4.58758 7.93149C4.51139 8.00767 4.46859 8.11101 4.46859 8.21875Z" fill="#BEDCFF"/>
</svg>
