<svg width="25" height="25" viewBox="0 0 25 25" fill="none" xmlns="http://www.w3.org/2000/svg">
<path d="M0 0H22C23.6569 0 25 1.34315 25 3V22C25 23.6569 23.6569 25 22 25H0V0Z" fill="#B2FFB0" fill-opacity="0.04"/>
<path d="M12.5002 7.4585C12.8011 7.4585 13.0991 7.51777 13.3772 7.63294C13.6552 7.74811 13.9078 7.91691 14.1206 8.12971C14.3334 8.34251 14.5022 8.59514 14.6174 8.87318C14.7326 9.15122 14.7918 9.44922 14.7918 9.75016V11.5835C14.7918 12.1913 14.5504 12.7742 14.1206 13.2039C13.6909 13.6337 13.108 13.8752 12.5002 13.8752C11.8924 13.8752 11.3095 13.6337 10.8797 13.2039C10.45 12.7742 10.2085 12.1913 10.2085 11.5835V9.75016C10.2085 9.14238 10.45 8.55948 10.8797 8.12971C11.3095 7.69994 11.8924 7.4585 12.5002 7.4585ZM8.40039 12.0418H9.32393C9.43498 12.8049 9.81704 13.5024 10.4002 14.0068C10.9834 14.5113 11.7287 14.7889 12.4997 14.7889C13.2708 14.7889 14.0161 14.5113 14.5992 14.0068C15.1824 13.5024 15.5645 12.8049 15.6755 12.0418H16.5995C16.4953 12.9717 16.0782 13.8385 15.4167 14.5001C14.7551 15.1618 13.8883 15.579 12.9585 15.6833V17.5418H12.0418V15.6833C11.112 15.5791 10.2451 15.1619 9.58343 14.5002C8.92178 13.8386 8.50462 12.9717 8.40039 12.0418Z" fill="#B2FFB0" fill-opacity="0.21"/>
</svg>
