<svg width="28" height="28" viewBox="0 0 28 28" fill="none" xmlns="http://www.w3.org/2000/svg">
<rect width="28" height="28" rx="3" fill="url(#paint0_linear_953_1254)" fill-opacity="0.08"/>
<rect width="28" height="28" rx="3" fill="url(#paint1_linear_953_1254)"/>
<rect x="0.5" y="0.5" width="27" height="27" rx="2.5" stroke="white" stroke-opacity="0.02"/>
<rect x="0.5" y="0.5" width="27" height="27" rx="2.5" stroke="white" stroke-opacity="0.4"/>
<g clip-path="url(#clip0_953_1254)">
<path d="M20.3943 7C20.2737 7.01296 20.161 7.06628 20.0744 7.1513L17.5674 9.65892C16.3806 8.80169 14.7345 8.95569 13.6296 10.0122C13.6296 10.0531 13.1692 10.5022 12.7551 10.9038L12.2328 10.3821C12.1688 10.3158 12.0888 10.2672 12.0006 10.2407C11.9123 10.2142 11.8188 10.2108 11.7288 10.2308C11.6303 10.2486 11.5387 10.2936 11.4643 10.3606C11.3899 10.4276 11.3356 10.5141 11.3077 10.6102C11.2797 10.7064 11.2791 10.8084 11.3059 10.9049C11.3328 11.0014 11.386 11.0885 11.4596 11.1564L16.8442 16.541C16.895 16.5918 16.9554 16.6322 17.0218 16.6597C17.0883 16.6872 17.1595 16.7014 17.2314 16.7014C17.3033 16.7014 17.3745 16.6872 17.4409 16.6597C17.5073 16.6322 17.5677 16.5918 17.6185 16.541C17.6694 16.4902 17.7097 16.4298 17.7372 16.3634C17.7647 16.2969 17.7789 16.2257 17.7789 16.1538C17.7789 16.0819 17.7647 16.0107 17.7372 15.9443C17.7097 15.8779 17.6694 15.8175 17.6185 15.7667L17.0967 15.2455L17.9884 14.3699C19.0438 13.3145 19.151 11.6738 18.325 10.4499L20.8493 7.92561C20.9341 7.84681 20.9913 7.74277 21.0123 7.62893C21.0333 7.51508 21.0171 7.39749 20.966 7.2936C20.9149 7.1897 20.8317 7.10503 20.7288 7.05214C20.6258 6.99926 20.5085 6.98097 20.3943 7ZM10.7187 11.291C10.6959 11.2951 10.6734 11.3007 10.6514 11.3077C10.5528 11.3255 10.4612 11.3705 10.3868 11.4375C10.3124 11.5045 10.2582 11.591 10.2302 11.6872C10.2022 11.7833 10.2016 11.8854 10.2285 11.9818C10.2553 12.0783 10.3085 12.1654 10.3821 12.2333L10.9039 12.7551L10.0122 13.6295C8.95682 14.6849 8.84967 16.3262 9.67567 17.5506L7.15082 20.0738C7.09991 20.1248 7.05952 20.1852 7.03197 20.2517C7.00442 20.3182 6.99023 20.3895 6.99023 20.4615C6.99023 20.5335 7.00442 20.6048 7.03197 20.6714C7.05952 20.7379 7.09991 20.7983 7.15082 20.8492C7.20173 20.9001 7.26218 20.9405 7.3287 20.9681C7.39522 20.9956 7.46651 21.0098 7.53851 21.0098C7.61052 21.0098 7.68181 20.9956 7.74833 20.9681C7.81485 20.9405 7.87529 20.9001 7.92621 20.8492L10.4333 18.3416C11.6201 19.1988 13.2661 19.0448 14.3711 17.9884C14.3711 17.9475 14.8314 17.4984 15.2455 17.0967L15.7678 17.6185C15.8187 17.6693 15.879 17.7096 15.9454 17.737C16.0118 17.7645 16.083 17.7787 16.1549 17.7786C16.2268 17.7786 16.2979 17.7644 16.3643 17.7369C16.4307 17.7094 16.4911 17.669 16.5419 17.6182C16.5927 17.5673 16.633 17.507 16.6604 17.4406C16.6879 17.3742 16.7021 17.303 16.702 17.2311C16.702 17.1592 16.6878 17.0881 16.6603 17.0217C16.6328 16.9553 16.5924 16.895 16.5416 16.8442L11.157 11.4595C11.1014 11.4003 11.0331 11.3545 10.9573 11.3254C10.8815 11.2963 10.8001 11.2847 10.7192 11.2915L10.7187 11.291Z" fill="white" fill-opacity="0.71"/>
</g>
<defs>
<linearGradient id="paint0_linear_953_1254" x1="14" y1="0" x2="14" y2="28" gradientUnits="userSpaceOnUse">
<stop stop-color="white"/>
<stop offset="1" stop-color="#999999"/>
</linearGradient>
<linearGradient id="paint1_linear_953_1254" x1="2.61935" y1="-79.3333" x2="47.1061" y2="-72.1867" gradientUnits="userSpaceOnUse">
<stop stop-color="#53FF79"/>
<stop offset="1" stop-color="#329955"/>
</linearGradient>
<clipPath id="clip0_953_1254">
<rect width="14" height="14" fill="white" transform="translate(7 7)"/>
</clipPath>
</defs>
</svg>
