<svg width="28" height="28" viewBox="0 0 28 28" fill="none" xmlns="http://www.w3.org/2000/svg">
<rect width="28" height="28" rx="3" fill="url(#paint0_linear_0_33)" fill-opacity="0.2"/>
<rect x="0.5" y="0.5" width="27" height="27" rx="2.5" stroke="white" stroke-opacity="0.02"/>
<path d="M9.5 11L8.79289 11.7071L8.08579 11L8.79289 10.2929L9.5 11ZM12.625 18.875C12.0727 18.875 11.625 18.4273 11.625 17.875C11.625 17.3227 12.0727 16.875 12.625 16.875L12.625 18.875ZM11.9179 14.8321L8.79289 11.7071L10.2071 10.2929L13.3321 13.4179L11.9179 14.8321ZM8.79289 10.2929L11.9179 7.16789L13.3321 8.58211L10.2071 11.7071L8.79289 10.2929ZM9.5 10L16.0625 10L16.0625 12L9.5 12L9.5 10ZM16.0625 18.875L12.625 18.875L12.625 16.875L16.0625 16.875L16.0625 18.875ZM20.5 14.4375C20.5 16.8883 18.5133 18.875 16.0625 18.875L16.0625 16.875C17.4087 16.875 18.5 15.7837 18.5 14.4375L20.5 14.4375ZM16.0625 10C18.5133 10 20.5 11.9867 20.5 14.4375L18.5 14.4375C18.5 13.0913 17.4087 12 16.0625 12L16.0625 10Z" fill="white"/>
<defs>
<linearGradient id="paint0_linear_0_33" x1="14" y1="0" x2="14" y2="28" gradientUnits="userSpaceOnUse">
<stop stop-color="white"/>
<stop offset="1" stop-color="#999999"/>
</linearGradient>
</defs>
</svg>
