<svg width="28" height="28" viewBox="0 0 28 28" fill="none" xmlns="http://www.w3.org/2000/svg">
<rect width="28" height="28" rx="3" fill="url(#paint0_linear_953_1494)" fill-opacity="0.2"/>
<rect x="0.5" y="0.5" width="27" height="27" rx="2.5" stroke="white" stroke-opacity="0.02"/>
<g clip-path="url(#clip0_953_1494)">
<path d="M14.0002 9.91683C12.9172 9.91683 11.8786 10.347 11.1128 11.1128C10.347 11.8786 9.91683 12.9172 9.91683 14.0002H11.0835C11.0835 13.2266 11.3908 12.4847 11.9378 11.9378C12.4847 11.3908 13.2266 11.0835 14.0002 11.0835C14.7737 11.0835 15.5156 11.3908 16.0626 11.9378C16.6095 12.4847 16.9168 13.2266 16.9168 14.0002H18.0835C18.0835 12.9172 17.6533 11.8786 16.8875 11.1128C16.1217 10.347 15.0831 9.91683 14.0002 9.91683ZM14.5835 15.336C15.0968 15.1085 15.4585 14.601 15.4585 14.0002C15.4585 13.6134 15.3049 13.2425 15.0314 12.969C14.7579 12.6955 14.3869 12.5418 14.0002 12.5418C13.6134 12.5418 13.2425 12.6955 12.969 12.969C12.6955 13.2425 12.5418 13.6134 12.5418 14.0002C12.5418 14.5835 12.9035 15.1085 13.4168 15.336V17.261L11.4277 19.2502L12.2502 20.0727L14.0002 18.3227L15.7502 20.0727L16.5727 19.2502L14.5835 17.261V15.336ZM14.0002 7.5835C12.2984 7.5835 10.6663 8.25954 9.46289 9.46289C8.25954 10.6663 7.5835 12.2984 7.5835 14.0002H8.75016C8.75016 12.6078 9.30329 11.2724 10.2879 10.2879C11.2724 9.30329 12.6078 8.75016 14.0002 8.75016C15.3925 8.75016 16.7279 9.30329 17.7125 10.2879C18.697 11.2724 19.2502 12.6078 19.2502 14.0002H20.4168C20.4168 12.2984 19.7408 10.6663 18.5374 9.46289C17.3341 8.25954 15.702 7.5835 14.0002 7.5835Z" fill="white"/>
</g>
<defs>
<linearGradient id="paint0_linear_953_1494" x1="14" y1="0" x2="14" y2="28" gradientUnits="userSpaceOnUse">
<stop stop-color="white"/>
<stop offset="1" stop-color="#999999"/>
</linearGradient>
<clipPath id="clip0_953_1494">
<rect width="14" height="14" fill="white" transform="translate(7 7)"/>
</clipPath>
</defs>
</svg>
