<svg width="25" height="25" viewBox="0 0 25 25" fill="none" xmlns="http://www.w3.org/2000/svg">
<path d="M0 0H22C23.6569 0 25 1.34315 25 3V22C25 23.6569 23.6569 25 22 25H0V0Z" fill="#8AFF88" fill-opacity="0.18"/>
<g clip-path="url(#clip0_953_1755)">
<path d="M17.5239 6.99989C17.4292 7.01008 17.3406 7.05197 17.2726 7.11878L15.3028 9.08905C14.3703 8.41551 13.077 8.53651 12.2088 9.36659C12.2088 9.39874 11.8471 9.75159 11.5217 10.0672L11.1114 9.65724C11.061 9.6052 10.9982 9.56694 10.9289 9.54613C10.8595 9.52531 10.786 9.52264 10.7154 9.53835C10.6379 9.55237 10.566 9.58769 10.5075 9.64036C10.449 9.69303 10.4064 9.76096 10.3845 9.83651C10.3625 9.91206 10.362 9.99224 10.3831 10.068C10.4042 10.1438 10.446 10.2123 10.5038 10.2656L14.7346 14.4964C14.7745 14.5363 14.822 14.568 14.8742 14.5896C14.9264 14.6113 14.9823 14.6224 15.0388 14.6224C15.0953 14.6224 15.1512 14.6113 15.2034 14.5896C15.2556 14.568 15.303 14.5363 15.343 14.4964C15.3829 14.4564 15.4146 14.409 15.4362 14.3568C15.4579 14.3046 15.469 14.2487 15.469 14.1922C15.469 14.1357 15.4579 14.0798 15.4362 14.0276C15.4146 13.9754 15.3829 13.928 15.343 13.888L14.933 13.4785L15.6336 12.7905C16.4629 11.9613 16.5471 10.6722 15.8981 9.71055L17.8814 7.72716C17.9481 7.66525 17.993 7.5835 18.0095 7.49405C18.026 7.4046 18.0133 7.31221 17.9732 7.23058C17.933 7.14895 17.8677 7.08242 17.7867 7.04087C17.7058 6.99931 17.6137 6.98494 17.5239 6.99989ZM9.92167 10.3714C9.90378 10.3746 9.88611 10.379 9.86879 10.3845C9.79136 10.3985 9.71938 10.4338 9.66093 10.4865C9.60247 10.5392 9.55986 10.6071 9.53789 10.6827C9.51591 10.7582 9.51544 10.8384 9.53653 10.9142C9.55761 10.99 9.59942 11.0584 9.65725 11.1118L10.0672 11.5217L9.36659 12.2088C8.53736 13.038 8.45317 14.3276 9.10217 15.2897L7.11836 17.2722C7.07836 17.3122 7.04663 17.3597 7.02498 17.412C7.00333 17.4642 6.99219 17.5202 6.99219 17.5768C6.99219 17.6334 7.00333 17.6894 7.02498 17.7417C7.04663 17.7939 7.07836 17.8414 7.11836 17.8814C7.15837 17.9214 7.20586 17.9532 7.25812 17.9748C7.31039 17.9965 7.36641 18.0076 7.42298 18.0076C7.47955 18.0076 7.53557 17.9965 7.58784 17.9748C7.6401 17.9532 7.68759 17.9214 7.72759 17.8814L9.69744 15.9112C10.6299 16.5847 11.9232 16.4637 12.7914 15.6336C12.7914 15.6015 13.1531 15.2486 13.4785 14.933L13.8889 15.343C13.9288 15.3829 13.9762 15.4145 14.0284 15.4361C14.0806 15.4577 14.1365 15.4688 14.193 15.4688C14.2495 15.4688 14.3054 15.4577 14.3576 15.436C14.4097 15.4144 14.4571 15.3827 14.497 15.3428C14.537 15.3028 14.5686 15.2554 14.5902 15.2032C14.6118 15.151 14.6229 15.0951 14.6229 15.0386C14.6229 14.9822 14.6117 14.9262 14.5901 14.8741C14.5685 14.8219 14.5368 14.7745 14.4968 14.7346L10.2661 10.5038C10.2224 10.4573 10.1688 10.4213 10.1092 10.3984C10.0496 10.3756 9.98567 10.3665 9.92209 10.3718L9.92167 10.3714Z" fill="#8AFF88" fill-opacity="0.960784"/>
</g>
<defs>
<clipPath id="clip0_953_1755">
<rect width="11" height="11" fill="white" transform="translate(7 7)"/>
</clipPath>
</defs>
</svg>
