<svg width="14" height="15" viewBox="0 0 14 15" fill="none" xmlns="http://www.w3.org/2000/svg">
<path d="M0.583496 12.1668V10.5335C0.583496 10.203 0.668663 9.89923 0.838996 9.62234C1.00933 9.34546 1.23527 9.1339 1.51683 8.98768C2.11961 8.68629 2.73211 8.46034 3.35433 8.30984C3.97655 8.15934 4.6085 8.0839 5.25016 8.08351C5.89183 8.08312 6.52377 8.15857 7.146 8.30984C7.76822 8.46112 8.38072 8.68707 8.9835 8.98768C9.26544 9.13351 9.49158 9.34507 9.66191 9.62234C9.83225 9.89962 9.91722 10.2033 9.91683 10.5335V12.1668H0.583496ZM11.0835 12.1668V10.4168C11.0835 9.98907 10.9645 9.57821 10.7265 9.18426C10.4885 8.79032 10.1506 8.45257 9.71266 8.17101C10.2085 8.22934 10.6752 8.32909 11.1127 8.47026C11.5502 8.61143 11.9585 8.7839 12.3377 8.98768C12.6877 9.18212 12.955 9.39834 13.1397 9.63634C13.3245 9.87434 13.4168 10.1345 13.4168 10.4168V12.1668H11.0835ZM5.25016 7.50018C4.6085 7.50018 4.05919 7.27171 3.60225 6.81476C3.1453 6.35782 2.91683 5.80851 2.91683 5.16684C2.91683 4.52518 3.1453 3.97587 3.60225 3.51893C4.05919 3.06198 4.6085 2.83351 5.25016 2.83351C5.89183 2.83351 6.44113 3.06198 6.89808 3.51893C7.35502 3.97587 7.5835 4.52518 7.5835 5.16684C7.5835 5.80851 7.35502 6.35782 6.89808 6.81476C6.44113 7.27171 5.89183 7.50018 5.25016 7.50018ZM11.0835 5.16684C11.0835 5.80851 10.855 6.35782 10.3981 6.81476C9.94114 7.27171 9.39183 7.50018 8.75016 7.50018C8.64322 7.50018 8.50711 7.48812 8.34183 7.46401C8.17655 7.4399 8.04044 7.41307 7.9335 7.38351C8.196 7.0724 8.39783 6.72726 8.539 6.34809C8.68016 5.96893 8.75055 5.57518 8.75016 5.16684C8.74977 4.75851 8.67938 4.36476 8.539 3.98559C8.39861 3.60643 8.19677 3.26129 7.9335 2.95018C8.06961 2.90157 8.20572 2.86987 8.34183 2.85509C8.47794 2.84032 8.61405 2.83312 8.75016 2.83351C9.39183 2.83351 9.94114 3.06198 10.3981 3.51893C10.855 3.97587 11.0835 4.52518 11.0835 5.16684Z" fill="black" fill-opacity="0.6"/>
</svg>
