<svg width="78" height="27" viewBox="0 0 78 27" fill="none" xmlns="http://www.w3.org/2000/svg">
<mask id="mask0_953_1537" style="mask-type:alpha" maskUnits="userSpaceOnUse" x="0" y="0" width="78" height="27">
<path d="M78 13.5C78 6.04416 71.9558 0 64.5 0H5C2.23858 0 0 2.23858 0 5V22C0 24.7614 2.23858 27 5 27H64.5C71.9558 27 78 20.9558 78 13.5Z" fill="#D9D9D9"/>
</mask>
<g mask="url(#mask0_953_1537)">
<path d="M78 13.5C78 6.04416 71.9558 0 64.5 0H5C2.23858 0 0 2.23858 0 5V22C0 24.7614 2.23858 27 5 27H64.5C71.9558 27 78 20.9558 78 13.5Z" fill="#BEDCFF" fill-opacity="0.63"/>
<path d="M77.5 13.5C77.5 6.3203 71.6797 0.5 64.5 0.5H5C2.51472 0.5 0.5 2.51472 0.5 5V22C0.5 24.4853 2.51472 26.5 5 26.5H64.5C71.6797 26.5 77.5 20.6797 77.5 13.5Z" stroke="#BEDCFF" stroke-opacity="0.15"/>
<rect opacity="0.3" width="13.8983" height="92.6256" transform="matrix(-0.758494 0.65168 0.65168 0.758494 47.6377 -30)" fill="#BEDCFF"/>
<rect opacity="0.3" width="13.8983" height="92.6256" transform="matrix(-0.758494 0.65168 0.65168 0.758494 24.6377 -23)" fill="#BEDCFF"/>
<rect opacity="0.3" width="13.8983" height="92.6256" transform="matrix(-0.758494 0.65168 0.65168 0.758494 1.6377 -16)" fill="#BEDCFF"/>
<rect opacity="0.3" width="13.8983" height="92.6256" transform="matrix(-0.758494 0.65168 0.65168 0.758494 -21.3623 -9)" fill="#BEDCFF"/>
</g>
</svg>
