<svg width="13" height="13" viewBox="0 0 13 13" fill="none" xmlns="http://www.w3.org/2000/svg">
<g clip-path="url(#clip0_953_792)">
<path d="M6.49984 2.70841C5.49423 2.70841 4.5298 3.10789 3.81872 3.81897C3.10765 4.53004 2.70817 5.49447 2.70817 6.50008H3.7915C3.7915 5.78179 4.07685 5.09291 4.58476 4.585C5.09267 4.07709 5.78154 3.79175 6.49984 3.79175C7.21813 3.79175 7.90701 4.07709 8.41492 4.585C8.92283 5.09291 9.20817 5.78179 9.20817 6.50008H10.2915C10.2915 5.49447 9.89203 4.53004 9.18095 3.81897C8.46988 3.10789 7.50545 2.70841 6.49984 2.70841ZM7.0415 7.7405C7.51817 7.52925 7.854 7.058 7.854 6.50008C7.854 6.14093 7.71133 5.7965 7.45738 5.54254C7.20342 5.28859 6.85899 5.14592 6.49984 5.14592C6.14069 5.14592 5.79625 5.28859 5.5423 5.54254C5.28834 5.7965 5.14567 6.14093 5.14567 6.50008C5.14567 7.04175 5.4815 7.52925 5.95817 7.7405V9.528L4.11109 11.3751L4.87484 12.1388L6.49984 10.5138L8.12484 12.1388L8.88859 11.3751L7.0415 9.528V7.7405ZM6.49984 0.541748C4.91959 0.541748 3.40406 1.1695 2.28666 2.2869C1.16926 3.40431 0.541504 4.91983 0.541504 6.50008H1.62484C1.62484 5.20715 2.13845 3.96718 3.05269 3.05294C3.96693 2.1387 5.20691 1.62508 6.49984 1.62508C7.79277 1.62508 9.03274 2.1387 9.94698 3.05294C10.8612 3.96718 11.3748 5.20715 11.3748 6.50008H12.4582C12.4582 4.91983 11.8304 3.40431 10.713 2.2869C9.59561 1.1695 8.08009 0.541748 6.49984 0.541748Z" fill="white"/>
</g>
<defs>
<clipPath id="clip0_953_792">
<rect width="13" height="13" fill="white"/>
</clipPath>
</defs>
</svg>
