<svg width="17" height="17" viewBox="0 0 17 17" fill="none" xmlns="http://www.w3.org/2000/svg">
<path d="M8.49984 9.91675C7.90956 9.91675 7.40782 9.71015 6.99463 9.29696C6.58143 8.88376 6.37484 8.38203 6.37484 7.79175V3.54175C6.37484 2.95147 6.58143 2.44973 6.99463 2.03654C7.40782 1.62335 7.90956 1.41675 8.49984 1.41675C9.09012 1.41675 9.59185 1.62335 10.005 2.03654C10.4182 2.44973 10.6248 2.95147 10.6248 3.54175V7.79175C10.6248 8.38203 10.4182 8.88376 10.005 9.29696C9.59185 9.71015 9.09012 9.91675 8.49984 9.91675ZM7.7915 14.8751V12.697C6.56373 12.5317 5.54845 11.9827 4.74567 11.0501C3.94289 10.1174 3.5415 9.03133 3.5415 7.79175H4.95817C4.95817 8.77161 5.3036 9.60697 5.99446 10.2978C6.68532 10.9887 7.52045 11.3339 8.49984 11.3334C9.47923 11.3329 10.3146 10.9875 11.0059 10.2971C11.6973 9.60673 12.0424 8.77161 12.0415 7.79175H13.4582C13.4582 9.03133 13.0568 10.1174 12.254 11.0501C11.4512 11.9827 10.4359 12.5317 9.20817 12.697V14.8751H7.7915Z" fill="white" fill-opacity="0.61"/>
</svg>
