<svg width="20" height="20" viewBox="0 0 20 20" fill="none" xmlns="http://www.w3.org/2000/svg">
<path d="M0.833496 16.6666V14.3333C0.833496 13.8611 0.955163 13.4272 1.1985 13.0316C1.44183 12.6361 1.76461 12.3338 2.16683 12.1249C3.02794 11.6944 3.90294 11.3716 4.79183 11.1566C5.68072 10.9416 6.5835 10.8338 7.50016 10.8333C8.41683 10.8327 9.31961 10.9405 10.2085 11.1566C11.0974 11.3727 11.9724 11.6955 12.8335 12.1249C13.2363 12.3333 13.5593 12.6355 13.8027 13.0316C14.046 13.4277 14.1674 13.8616 14.1668 14.3333V16.6666H0.833496ZM15.8335 16.6666V14.1666C15.8335 13.5555 15.6635 12.9686 15.3235 12.4058C14.9835 11.843 14.5007 11.3605 13.8752 10.9583C14.5835 11.0416 15.2502 11.1841 15.8752 11.3858C16.5002 11.5874 17.0835 11.8338 17.6252 12.1249C18.1252 12.4027 18.5071 12.7116 18.771 13.0516C19.0349 13.3916 19.1668 13.7633 19.1668 14.1666V16.6666H15.8335ZM7.50016 9.99994C6.5835 9.99994 5.79877 9.67355 5.146 9.02077C4.49322 8.368 4.16683 7.58327 4.16683 6.66661C4.16683 5.74994 4.49322 4.96522 5.146 4.31244C5.79877 3.65966 6.5835 3.33327 7.50016 3.33327C8.41683 3.33327 9.20155 3.65966 9.85433 4.31244C10.5071 4.96522 10.8335 5.74994 10.8335 6.66661C10.8335 7.58327 10.5071 8.368 9.85433 9.02077C9.20155 9.67355 8.41683 9.99994 7.50016 9.99994ZM15.8335 6.66661C15.8335 7.58327 15.5071 8.368 14.8543 9.02077C14.2016 9.67355 13.4168 9.99994 12.5002 9.99994C12.3474 9.99994 12.1529 9.98272 11.9168 9.94827C11.6807 9.91383 11.4863 9.8755 11.3335 9.83327C11.7085 9.38883 11.9968 8.89577 12.1985 8.35411C12.4002 7.81244 12.5007 7.24994 12.5002 6.66661C12.4996 6.08327 12.3991 5.52077 12.1985 4.97911C11.9979 4.43744 11.7096 3.94438 11.3335 3.49994C11.5279 3.4305 11.7224 3.38522 11.9168 3.36411C12.1113 3.343 12.3057 3.33272 12.5002 3.33327C13.4168 3.33327 14.2016 3.65966 14.8543 4.31244C15.5071 4.96522 15.8335 5.74994 15.8335 6.66661Z" fill="#BEDCFF"/>
</svg>
