<svg width="11" height="11" viewBox="0 0 11 11" fill="none" xmlns="http://www.w3.org/2000/svg">
<path d="M5.50018 0.458496C5.80113 0.458496 6.09913 0.517772 6.37716 0.632939C6.6552 0.748106 6.90783 0.916909 7.12064 1.12971C7.33344 1.34251 7.50224 1.59514 7.61741 1.87318C7.73257 2.15122 7.79185 2.44922 7.79185 2.75016V4.5835C7.79185 5.19128 7.55041 5.77418 7.12064 6.20395C6.69086 6.63372 6.10797 6.87516 5.50018 6.87516C4.89239 6.87516 4.3095 6.63372 3.87973 6.20395C3.44996 5.77418 3.20852 5.19128 3.20852 4.5835V2.75016C3.20852 2.14238 3.44996 1.55948 3.87973 1.12971C4.3095 0.699939 4.89239 0.458496 5.50018 0.458496ZM1.40039 5.04183H2.32393C2.43498 5.80485 2.81704 6.50239 3.40021 7.00683C3.98337 7.51126 4.72866 7.78888 5.49972 7.78888C6.27079 7.78888 7.01608 7.51126 7.59924 7.00683C8.18241 6.50239 8.56447 5.80485 8.67552 5.04183H9.59952C9.49531 5.97166 9.07822 6.83847 8.41665 7.50012C7.75509 8.16176 6.88833 8.57896 5.95852 8.68329V10.5418H5.04185V8.68329C4.11195 8.57906 3.24508 8.1619 2.58343 7.50025C1.92178 6.8386 1.50462 5.97173 1.40039 5.04183Z" fill="#B2FFB0" fill-opacity="0.21"/>
</svg>
