<svg width="25" height="25" viewBox="0 0 25 25" fill="none" xmlns="http://www.w3.org/2000/svg">
<path d="M0 0H25V25H0V0Z" fill="#FFE872" fill-opacity="0.51"/>
<path d="M12.5003 15.3545L14.7482 16.7141C15.1598 16.9633 15.6636 16.595 15.5553 16.1291L14.9594 13.5725L16.9473 11.85C17.3103 11.5358 17.1153 10.94 16.6386 10.902L14.0223 10.68L12.9986 8.26412C12.8144 7.82537 12.1861 7.82537 12.0019 8.26412L10.9782 10.6745L8.36192 10.8966C7.88525 10.9345 7.69025 11.5304 8.05317 11.8445L10.0411 13.567L9.44525 16.1237C9.33692 16.5895 9.84067 16.9579 10.2523 16.7087L12.5003 15.3545Z" fill="#FFE872"/>
</svg>
